<?xml version="1.0" encoding="UTF-8"?> <svg xmlns="http://www.w3.org/2000/svg" id="Layer_1" data-name="Layer 1" width="178.31" height="178.3" viewBox="0 0 178.31 178.3"><defs><style>.cls-1{fill:#dfdbda;}</style></defs><path class="cls-1" d="M104.16,9.48l1.51.16a5.7,5.7,0,0,1-6.32,4,6.59,6.59,0,0,1-5.91-7.51A6.59,6.59,0,0,1,100.73,0,5.67,5.67,0,0,1,106,5.33l-1.51-.17a4.16,4.16,0,0,0-3.9-3.76c-3-.32-5.35,1.8-5.69,4.93a5.19,5.19,0,0,0,4.61,6A4.13,4.13,0,0,0,104.16,9.48Z" transform="translate(-1.35 0)"></path><path class="cls-1" d="M107.64,10a4.71,4.71,0,1,1,9.07,2.51A4.71,4.71,0,1,1,107.64,10Zm1.39.38a3.27,3.27,0,1,0,6.29,1.75A3.28,3.28,0,1,0,109,10.38Z" transform="translate(-1.35 0)"></path><path class="cls-1" d="M121.18,9.25l1.25.55-.44,1a3.65,3.65,0,0,1,3.26,0c2.11.93,2.75,2.82,1.69,5.23L124.77,21l-1.28-.56,2.21-5.05c.71-1.6.25-2.83-1.1-3.43-1.67-.73-3.14.18-4,2.19l-1.84,4.2-1.28-.56Z" transform="translate(-1.35 0)"></path><path class="cls-1" d="M129.68,23.83c-1.37-.79-1.91-1.94-.89-3.71l2.64-4.57-1.58-.91.65-1.12,1.57.91,1.05-1.8,1.88-.45-1.71,3,2.2,1.27-.64,1.11-2.21-1.27-2.53,4.39c-.57,1-.56,1.62.37,2.16a2.29,2.29,0,0,0,1.13.33l-.63,1.1A2.51,2.51,0,0,1,129.68,23.83Z" transform="translate(-1.35 0)"></path><path class="cls-1" d="M137.82,28.09a3.84,3.84,0,0,1-3.14-.76c-1.42-1-2.19-2.65-1.08-4.17s2.83-1.18,4.6,0c1.61,1.07,2.34,1,2.8.41.6-.83.15-1.91-.86-2.65a2.2,2.2,0,0,0-3.16.21l-1.07-.79a3.44,3.44,0,0,1,5-.46c1.9,1.39,2.22,3.17.88,5l-3.54,4.84-.9-.66Zm-2.28-1.73a2.57,2.57,0,0,0,3.83-.52l.45-.63a5.53,5.53,0,0,1-2.24-1c-1.42-.91-2.33-.95-2.84-.26S134.57,25.65,135.54,26.36Z" transform="translate(-1.35 0)"></path><path class="cls-1" d="M147.31,33.91l1.06,1a4,4,0,0,1-5.2-.53,4.86,4.86,0,0,1,6.67-7.07,4.13,4.13,0,0,1,.71,5.28l-1.08-1a2.66,2.66,0,0,0-.54-3.28,3.3,3.3,0,0,0-4.79.34,3.3,3.3,0,0,0-.07,4.82A2.67,2.67,0,0,0,147.31,33.91Z" transform="translate(-1.35 0)"></path><path class="cls-1" d="M149.65,41.18c-1-1.21-1.13-2.47.43-3.79l4-3.39-1.18-1.4,1-.83,1.17,1.4,1.6-1.35,1.92.22L156,34.24l1.63,1.94-1,.83L155,35.07l-3.87,3.26c-.87.73-1.08,1.33-.39,2.16a2.37,2.37,0,0,0,1,.69l-1,.82A2.51,2.51,0,0,1,149.65,41.18Z" transform="translate(-1.35 0)"></path><path class="cls-1" d="M158.66,54.85,158,53.67l1-.55a3.5,3.5,0,0,1-2.59-1.89c-1.18-2.07-.45-3.75,1.84-5.06l4.69-2.67.7,1.22-4.75,2.7c-1.53.87-2,2-1.23,3.32.89,1.56,2.54,1.65,4.45.57L166,49l.69,1.22Z" transform="translate(-1.35 0)"></path><path class="cls-1" d="M164.87,59.41l-.24-1.27c-.34-1.89.08-3.09,1.35-3.61,1.68-.69,3.17.48,3.84,2.11a3.32,3.32,0,0,1-1.41,4.4l-.52-1.27a2,2,0,0,0,.71-2.65c-.46-1.12-1.27-1.65-2-1.34-.58.24-.83.83-.62,2l.24,1.27c.35,1.85,0,3.07-1.34,3.63-1.62.66-3.17-.22-4-2.2-.75-1.82-.49-3.74,1.35-4.84l.53,1.28a2.33,2.33,0,0,0-.69,3.07c.53,1.28,1.31,1.8,2.16,1.45C164.89,61.17,165.08,60.58,164.87,59.41Z" transform="translate(-1.35 0)"></path><path class="cls-1" d="M172.68,84.17l-2.36-15.26,1.27-.2L174,84Z" transform="translate(-1.35 0)"></path><path class="cls-1" d="M170.18,102.77l-.16,1.51A5.7,5.7,0,0,1,166,98a6.86,6.86,0,0,1,13.64,1.36,5.67,5.67,0,0,1-5.28,5.27l.16-1.51a4.15,4.15,0,0,0,3.76-3.9c.33-3-1.8-5.35-4.93-5.69a5.18,5.18,0,0,0-6,4.62A4.12,4.12,0,0,0,170.18,102.77Z" transform="translate(-1.35 0)"></path><path class="cls-1" d="M169.65,106.26a4.7,4.7,0,1,1-5.93,3.23A4.72,4.72,0,0,1,169.65,106.26Zm-.38,1.39a3.27,3.27,0,1,0-1.74,6.28,3.27,3.27,0,1,0,1.74-6.28Z" transform="translate(-1.35 0)"></path><path class="cls-1" d="M170.4,119.82l-.55,1.25-1-.43a3.62,3.62,0,0,1,0,3.25c-.93,2.12-2.82,2.76-5.24,1.7l-5-2.17.57-1.29,5,2.22c1.6.7,2.83.25,3.43-1.11.73-1.66-.18-3.14-2.19-4l-4.21-1.84.57-1.29Z" transform="translate(-1.35 0)"></path><path class="cls-1" d="M155.82,128.32c.79-1.36,1.93-1.9,3.71-.88l4.57,2.64.91-1.58,1.11.64-.91,1.58,1.81,1,.45,1.88-3-1.7-1.27,2.2-1.12-.65,1.27-2.2L159,128.76c-1-.57-1.63-.57-2.17.37a2.32,2.32,0,0,0-.32,1.13l-1.1-.64A2.39,2.39,0,0,1,155.82,128.32Z" transform="translate(-1.35 0)"></path><path class="cls-1" d="M151.57,136.44a3.81,3.81,0,0,1,.76-3.13c1-1.43,2.66-2.2,4.17-1.09s1.18,2.83,0,4.6-1,2.34-.41,2.8c.83.61,1.91.15,2.65-.86a2.2,2.2,0,0,0-.21-3.16l.79-1.07a3.42,3.42,0,0,1,.46,5c-1.39,1.9-3.17,2.22-5,.88L150,136.91l.66-.91Zm1.73-2.28a2.57,2.57,0,0,0,.52,3.83l.63.46a5.59,5.59,0,0,1,1-2.25c.92-1.42.95-2.33.26-2.83S154,133.19,153.3,134.16Z" transform="translate(-1.35 0)"></path><path class="cls-1" d="M145.75,146l-1,1.05a4,4,0,0,1,.52-5.2,4.87,4.87,0,0,1,7.08,6.67,4.11,4.11,0,0,1-5.28.71l1-1.08a2.67,2.67,0,0,0,3.29-.54,3.56,3.56,0,0,0-5.17-4.86A2.68,2.68,0,0,0,145.75,146Z" transform="translate(-1.35 0)"></path><path class="cls-1" d="M138.47,148.3c1.2-1,2.46-1.13,3.78.43l3.4,4,1.39-1.17.83,1-1.39,1.17,1.34,1.6-.22,1.91-2.19-2.61-1.95,1.64-.83-1,2-1.63-3.27-3.87c-.73-.87-1.33-1.09-2.16-.39a2.28,2.28,0,0,0-.68,1l-.82-1A2.45,2.45,0,0,1,138.47,148.3Z" transform="translate(-1.35 0)"></path><path class="cls-1" d="M124.79,157.3l1.19-.67.54,1a3.55,3.55,0,0,1,1.89-2.58c2.08-1.18,3.76-.46,5.06,1.83l2.68,4.7-1.22.69-2.71-4.74c-.87-1.53-2-2-3.31-1.23-1.57.89-1.66,2.53-.57,4.44l2.27,4-1.22.7Z" transform="translate(-1.35 0)"></path><path class="cls-1" d="M120.23,163.52l1.28-.24c1.89-.35,3.09.08,3.61,1.34.69,1.69-.48,3.18-2.11,3.85a3.31,3.31,0,0,1-4.4-1.42l1.26-.52a2,2,0,0,0,2.66.72c1.12-.46,1.65-1.28,1.34-2-.24-.58-.84-.83-2-.61l-1.28.23c-1.84.35-3.06,0-3.62-1.34-.67-1.61.21-3.16,2.2-4,1.82-.75,3.73-.49,4.84,1.36l-1.28.52a2.33,2.33,0,0,0-3.07-.68c-1.28.52-1.8,1.31-1.45,2.15C118.48,163.54,119.07,163.73,120.23,163.52Z" transform="translate(-1.35 0)"></path><path class="cls-1" d="M95.47,171.33,110.74,169l.2,1.27L95.67,172.6Z" transform="translate(-1.35 0)"></path><path class="cls-1" d="M76.87,168.82l-1.51-.16a5.71,5.71,0,0,1,6.32-4,6.86,6.86,0,0,1-1.37,13.64A5.67,5.67,0,0,1,75.05,173l1.51.16a4.15,4.15,0,0,0,3.9,3.76c3,.32,5.34-1.8,5.68-4.93a5.18,5.18,0,0,0-4.61-6A4.13,4.13,0,0,0,76.87,168.82Z" transform="translate(-1.35 0)"></path><path class="cls-1" d="M73.39,168.3a4.71,4.71,0,1,1-3.24-5.94A4.74,4.74,0,0,1,73.39,168.3ZM72,167.91a3.27,3.27,0,1,0-4.09,2.55A3.28,3.28,0,0,0,72,167.91Z" transform="translate(-1.35 0)"></path><path class="cls-1" d="M59.86,169.06l-1.26-.55.44-1a3.64,3.64,0,0,1-3.26,0c-2.12-.93-2.76-2.82-1.7-5.24l2.17-4.95,1.28.56L55.32,163c-.7,1.6-.25,2.83,1.11,3.42,1.67.73,3.14-.18,4-2.19L62.29,160l1.29.57Z" transform="translate(-1.35 0)"></path><path class="cls-1" d="M51.32,154.46c1.37.79,1.91,1.94.89,3.71l-2.64,4.57,1.58.91-.65,1.12-1.57-.91-1,1.8-1.88.45,1.71-3-2.2-1.27.64-1.12,2.2,1.27,2.54-4.39c.56-1,.56-1.62-.38-2.16a2.29,2.29,0,0,0-1.12-.32l.63-1.11A2.51,2.51,0,0,1,51.32,154.46Z" transform="translate(-1.35 0)"></path><path class="cls-1" d="M43.21,150.21a3.85,3.85,0,0,1,3.13.76c1.42,1,2.19,2.66,1.08,4.18s-2.83,1.17-4.59,0-2.35-1-2.81-.4c-.6.83-.15,1.91.86,2.65a2.2,2.2,0,0,0,3.16-.21l1.07.78a3.42,3.42,0,0,1-5,.46c-1.9-1.38-2.22-3.17-.88-5l3.54-4.85.9.66ZM45.49,152a2.57,2.57,0,0,0-3.83.52l-.46.62a5.73,5.73,0,0,1,2.24,1c1.42.92,2.34,1,2.84.27S46.45,152.65,45.49,152Z" transform="translate(-1.35 0)"></path><path class="cls-1" d="M33.7,144.4l-1.06-1a4.06,4.06,0,0,1,5.21.53A4.87,4.87,0,0,1,31.17,151a4.13,4.13,0,0,1-.71-5.28l1.09,1a2.64,2.64,0,0,0,.54,3.28A3.56,3.56,0,0,0,37,144.87,2.68,2.68,0,0,0,33.7,144.4Z" transform="translate(-1.35 0)"></path><path class="cls-1" d="M31.37,137.14c1,1.2,1.13,2.46-.44,3.78l-4,3.4,1.17,1.39-1,.83-1.17-1.39-1.6,1.34-1.92-.22,2.61-2.2-1.63-1.94,1-.83L26,143.24,29.87,140c.87-.73,1.08-1.33.39-2.16a2.37,2.37,0,0,0-1-.69l1-.81A2.41,2.41,0,0,1,31.37,137.14Z" transform="translate(-1.35 0)"></path><path class="cls-1" d="M22.34,123.44l.68,1.19-1,.54a3.47,3.47,0,0,1,2.58,1.89c1.19,2.08.46,3.75-1.83,5.06l-4.69,2.68-.7-1.23,4.75-2.7c1.53-.87,2-2,1.23-3.32C22.51,126,20.86,125.9,19,127l-4,2.27L14.27,128Z" transform="translate(-1.35 0)"></path><path class="cls-1" d="M16.13,118.88l.24,1.27c.34,1.89-.09,3.09-1.35,3.61-1.68.69-3.17-.48-3.84-2.11a3.31,3.31,0,0,1,1.41-4.39l.52,1.26a2,2,0,0,0-.71,2.65c.46,1.12,1.27,1.65,2,1.34.58-.24.83-.83.62-2l-.24-1.27c-.35-1.85,0-3.07,1.34-3.63,1.62-.66,3.17.22,4,2.2.75,1.83.49,3.74-1.35,4.84l-.53-1.28a2.33,2.33,0,0,0,.69-3.07c-.53-1.28-1.31-1.8-2.16-1.45C16.11,117.12,15.92,117.71,16.13,118.88Z" transform="translate(-1.35 0)"></path><path class="cls-1" d="M8.33,94.15l2.36,15.26-1.28.2L7.05,94.34Z" transform="translate(-1.35 0)"></path><path class="cls-1" d="M10.82,75.52,11,74a5.7,5.7,0,0,1,4,6.31,6.6,6.6,0,0,1-7.51,5.92A6.58,6.58,0,0,1,1.39,79a5.67,5.67,0,0,1,5.28-5.27L6.51,75.2a4.17,4.17,0,0,0-3.77,3.91c-.32,3,1.81,5.34,4.94,5.68a5.18,5.18,0,0,0,6-4.61A4.12,4.12,0,0,0,10.82,75.52Z" transform="translate(-1.35 0)"></path><path class="cls-1" d="M11.35,72A4.7,4.7,0,1,1,13.86,63,4.7,4.7,0,1,1,11.35,72Zm.38-1.39a3.27,3.27,0,1,0,1.74-6.28,3.27,3.27,0,1,0-1.74,6.28Z" transform="translate(-1.35 0)"></path><path class="cls-1" d="M10.57,58.53l.55-1.25,1,.43a3.62,3.62,0,0,1,0-3.25c.92-2.12,2.82-2.76,5.24-1.71l4.95,2.17-.56,1.29L16.68,54c-1.6-.7-2.83-.24-3.43,1.11-.73,1.67.18,3.15,2.2,4L19.65,61l-.56,1.28Z" transform="translate(-1.35 0)"></path><path class="cls-1" d="M25.18,50c-.79,1.36-1.93,1.91-3.71.88L16.9,48.22,16,49.79l-1.11-.64.91-1.58-1.81-1-.45-1.88,3,1.71,1.27-2.21,1.12.65L17.61,47,22,49.53c1,.57,1.63.57,2.17-.37A2.32,2.32,0,0,0,24.48,48l1.1.64A2.39,2.39,0,0,1,25.18,50Z" transform="translate(-1.35 0)"></path><path class="cls-1" d="M29.43,41.85A3.84,3.84,0,0,1,28.67,45c-1,1.42-2.66,2.19-4.17,1.08s-1.18-2.83,0-4.6c1.07-1.61,1-2.34.41-2.8-.83-.61-1.91-.15-2.65.86a2.21,2.21,0,0,0,.2,3.16l-.78,1.07a3.43,3.43,0,0,1-.46-5c1.39-1.9,3.17-2.22,5-.88L31,41.38l-.66.91ZM27.7,44.13a2.57,2.57,0,0,0-.52-3.83l-.63-.45a5.59,5.59,0,0,1-1,2.24c-.92,1.42-.95,2.33-.26,2.84S27,45.1,27.7,44.13Z" transform="translate(-1.35 0)"></path><path class="cls-1" d="M35.24,32.35l1-1.06a4,4,0,0,1-.52,5.2,4.87,4.87,0,0,1-7.08-6.67,4.12,4.12,0,0,1,5.28-.71l-1,1.08a2.68,2.68,0,0,0-3.29.54,3.31,3.31,0,0,0,.34,4.8,3.31,3.31,0,0,0,4.83.06A2.65,2.65,0,0,0,35.24,32.35Z" transform="translate(-1.35 0)"></path><path class="cls-1" d="M42.49,30c-1.21,1-2.47,1.13-3.79-.43l-3.4-4-1.39,1.17-.83-1,1.39-1.17L33.12,23l.22-1.92,2.2,2.61,2-1.64.83,1-2,1.64,3.27,3.87c.73.87,1.34,1.09,2.16.39a2.37,2.37,0,0,0,.69-1l.82,1A2.51,2.51,0,0,1,42.49,30Z" transform="translate(-1.35 0)"></path><path class="cls-1" d="M56.21,21,55,21.67l-.54-1a3.55,3.55,0,0,1-1.89,2.58c-2.08,1.18-3.76.46-5.06-1.83l-2.68-4.7,1.22-.69,2.7,4.74c.88,1.54,2,2,3.32,1.23,1.57-.89,1.66-2.53.57-4.44l-2.27-4,1.22-.7Z" transform="translate(-1.35 0)"></path><path class="cls-1" d="M60.77,14.78,59.49,15c-1.89.35-3.09-.08-3.61-1.34C55.19,12,56.36,10.5,58,9.83a3.31,3.31,0,0,1,4.4,1.41l-1.26.52A2,2,0,0,0,58.47,11c-1.12.46-1.65,1.28-1.34,2,.24.58.84.83,2,.62l1.28-.24c1.84-.35,3.06,0,3.62,1.34.67,1.61-.21,3.16-2.2,4-1.82.75-3.73.49-4.84-1.36l1.28-.52a2.33,2.33,0,0,0,3.07.68c1.28-.52,1.8-1.31,1.45-2.15C62.52,14.75,61.93,14.56,60.77,14.78Z" transform="translate(-1.35 0)"></path><path class="cls-1" d="M85.5,7,70.23,9.33,70,8.06,85.3,5.7Z" transform="translate(-1.35 0)"></path></svg> 